# xmcd CD database file
#
# Track frame offsets:
#	150
#	17687
#	26333
#	54260
#	62713
#	83981
#	94771
#	128575
#	142186
#	194029
#	200228
#	239769
#	266170
#	272117
#	287329
#
# Disc length: 4075 seconds
#
# Revision: 0
# Processed by: cddbd v1.4PL0 Copyright (c) Steve Scherf et al.
# Submitted via: CDex 1.50Beta7
#
DISCID=e40fe90f
DTITLE=Karl Jenkins - Adiemus, Cantata Mundi
DYEAR=1900
DGENRE=New Age
TTITLE0=Cantus - Song Of Tears
TTITLE1=Chorale I (Za Ma Ba)
TTITLE2=Cantus - Song Of The Spirit
TTITLE3=Chorale II (Roosh Ka Ma)
TTITLE4=Cantus - Song Of The Trinity
TTITLE5=Chorale III (Vocalise)
TTITLE6=Cantus - Song Of The Odyssey
TTITLE7=Chorale IV (Alame Oo Ya)
TTITLE8=Cantus - Song Of The Plains
TTITLE9=Chorale V (Arama Ivi)
TTITLE10=Cantus - Song Of Invocation
TTITLE11=Chorale VI (Sol-Fa)
TTITLE12=Chorale VII (A Ma Ka Ma)
TTITLE13=Cantinela
TTITLE14=Elegia
EXTD=
EXTT0=
EXTT1=
EXTT2=
EXTT3=
EXTT4=
EXTT5=
EXTT6=
EXTT7=
EXTT8=
EXTT9=
EXTT10=
EXTT11=
EXTT12=
EXTT13=
EXTT14=
PLAYORDER=
